<svg width="576" height="66" viewBox="0 0 576 66" fill="none" xmlns="http://www.w3.org/2000/svg">
<path d="M42.6968 25.6091V37.9382L14.6983 37.9383V65.04H0.472168V0.959991H14.6983V25.6091H42.6968Z" fill="#B43429"/>
<path d="M56.9228 65.04H42.6969V0.959991H56.9228V65.04Z" fill="#DBDBDB"/>
<path opacity="0.66" d="M14.6982 37.9383V25.6092L42.6968 25.6092V37.9383L14.6982 37.9383Z" fill="url(#paint0_linear)"/>
<path d="M114.478 0.959991H128.704L106.416 34.5567H92.1899L114.478 0.959991Z" fill="#DBDBDB"/>
<path opacity="0.66" d="M114.478 0.959991H128.704L106.416 34.5567H92.1899L114.478 0.959991Z" fill="url(#paint1_linear)"/>
<path d="M106.416 34.5567V65.04H92.1899V34.5567L69.9014 0.959991H84.1273L106.416 34.5567Z" fill="#B43429"/>
<path d="M194.878 22.3398C194.878 34.6518 184.861 43.7198 172.55 43.7198H155.916V31.3907H172.55C173.201 31.3907 173.831 31.2833 174.438 31.1031C181.985 30.1709 187.832 23.7489 187.832 15.9498C187.832 9.16398 183.405 3.41911 177.285 1.42477C187.329 3.41433 194.878 11.6528 194.878 22.3398Z" fill="#DBDBDB"/>
<path d="M187.832 15.9498C187.832 23.7489 181.985 30.1709 174.438 31.1031C177.997 30.0471 180.652 26.1564 180.652 22.3398C180.652 17.872 177.018 13.2891 172.55 13.2891H155.916V65.04H141.69V0.9601H155.916V0.959991H172.55V0.9601C174.175 0.9601 175.758 1.12225 177.285 1.42476C183.405 3.41911 187.832 9.16397 187.832 15.9498Z" fill="#B43429"/>
<path opacity="0.66" d="M155.916 0.959991H172.55V0.9601C174.175 0.9601 175.758 1.12225 177.285 1.42476C183.405 3.41911 187.832 9.16397 187.832 15.9498C187.832 23.7489 181.985 30.1709 174.438 31.1031C177.997 30.0471 180.652 26.1564 180.652 22.3398C180.652 17.872 177.018 13.2891 172.55 13.2891H155.916L155.916 0.959991Z" fill="url(#paint2_linear)"/>
<path d="M224.46 0.960014H210.234V65.0393H224.46V0.960014Z" fill="#B43429"/>
<path d="M224.46 13.2892V0.960012L254.293 0.959991V13.2892L224.46 13.2892ZM254.293 65.0393V52.7101L224.46 52.7101V65.0393L254.293 65.0393ZM249.338 39.3596V27.0304L224.46 27.0304V39.3596L249.338 39.3596Z" fill="#DBDBDB"/>
<path opacity="0.66" d="M224.46 13.2892V0.960012L254.293 0.959991V13.2892L224.46 13.2892ZM254.293 65.0393V52.7101L224.46 52.7101V65.0393L254.293 65.0393ZM249.338 39.3596V27.0304L224.46 27.0304V39.3596L249.338 39.3596Z" fill="url(#paint3_linear)"/>
<path d="M311.94 65.04L295.049 43.7198H285.62V31.3907H302.254C302.905 31.3907 303.535 31.2833 304.142 31.1031C311.689 30.1709 317.535 23.7489 317.535 15.9498C317.535 9.16398 313.109 3.41911 306.989 1.42477C317.033 3.41433 324.582 11.6528 324.582 22.3398C324.582 31.8803 318.565 39.4693 310.129 42.404L328.062 65.04H311.94Z" fill="#DBDBDB"/>
<path d="M317.536 15.9498C317.536 23.7489 311.689 30.1709 304.142 31.1031C307.7 30.0471 310.356 26.1564 310.356 22.3398C310.356 17.872 306.721 13.2891 302.254 13.2891H285.62V65.04H271.394V0.9601H285.62V0.959991H302.254V0.9601C303.878 0.9601 305.462 1.12225 306.989 1.42476C313.109 3.41911 317.536 9.16397 317.536 15.9498Z" fill="#B43429"/>
<path opacity="0.66" d="M285.62 0.959991H302.254V0.9601C303.878 0.9601 305.462 1.12225 306.989 1.42476C313.109 3.41911 317.536 9.16397 317.536 15.9498C317.536 23.7489 311.689 30.1709 304.142 31.1031C307.7 30.0471 310.356 26.1564 310.356 22.3398C310.356 17.872 306.721 13.2891 302.254 13.2891H285.62L285.62 0.959991Z" fill="url(#paint4_linear)"/>
<path d="M357.418 65.04H343.192V0.959991H357.418V65.04Z" fill="#B43429"/>
<path d="M357.418 13.2898V0.960615L387.25 0.960602V13.2898L357.418 13.2898ZM382.296 39.3602V27.031L357.418 27.031V39.3602L382.296 39.3602Z" fill="#DBDBDB"/>
<path opacity="0.66" d="M357.418 13.2898V0.960615L387.25 0.960602V13.2898L357.418 13.2898ZM382.296 39.3602V27.031L357.418 27.031V39.3602L382.296 39.3602Z" fill="url(#paint5_linear)"/>
<path d="M402.599 0.959991H416.825V65.04H402.599V0.959991Z" fill="#DBDBDB"/>
<path d="M481.693 0.959991H495.918V65.0366L481.693 53.1843V0.959991Z" fill="#DBDBDB"/>
<path opacity="0.66" d="M481.693 0.959991H495.918V65.0366L481.693 53.1843V0.959991Z" fill="url(#paint6_linear)"/>
<path d="M495.918 65.04L450.325 28.4864V65.0366H436.099V0.959991V0.960046V0.959991L495.918 48.9181V65.04Z" fill="#B43429"/>
<path d="M569.446 26.8332C569.446 41.125 557.824 52.7108 543.532 52.7108C553.352 52.7108 561.341 43.3456 561.341 32.9999C561.341 22.6542 553.352 13.289 543.532 13.289L529.382 13.2891V52.7108H515.156V0.960155H529.382V0.959999H543.532C557.824 0.95999 569.446 12.5414 569.446 26.8332Z" fill="#B43429"/>
<path d="M575.567 32.9999C575.567 51.1898 561.196 65.0399 543.532 65.0399L515.156 65.0399V52.7109L543.532 52.7108C557.824 52.7108 569.446 41.125 569.446 26.8332C569.446 12.5414 557.824 0.959991 543.532 0.959991C561.196 0.959991 575.567 14.81 575.567 32.9999Z" fill="#DBDBDB"/>
<path opacity="0.66" d="M543.532 0.959991H529.382V0.960154H515.156V52.7108H529.382V13.2891L543.532 13.289C553.352 13.289 561.341 22.6542 561.341 32.9999C561.341 43.3456 553.352 52.7108 543.532 52.7108C557.824 52.7108 569.446 41.125 569.446 26.8332C569.446 12.5414 557.824 0.959991 543.532 0.959991Z" fill="url(#paint7_linear)"/>
<defs>
<linearGradient id="paint0_linear" x1="14.6982" y1="31.7737" x2="42.6968" y2="31.7737" gradientUnits="userSpaceOnUse">
<stop stop-opacity="0"/>
<stop offset="0.32525" stop-opacity="0.29272"/>
<stop offset="0.72238" stop-opacity="0.65014"/>
<stop offset="1" stop-opacity="0.9"/>
</linearGradient>
<linearGradient id="paint1_linear" x1="99.2525" y1="25.9814" x2="116.032" y2="13.6561" gradientUnits="userSpaceOnUse">
<stop stop-opacity="0.9"/>
<stop offset="0.08614" stop-opacity="0.82247"/>
<stop offset="0.32646" stop-opacity="0.60618"/>
<stop offset="0.60381" stop-opacity="0.35657"/>
<stop offset="1" stop-opacity="0"/>
</linearGradient>
<linearGradient id="paint2_linear" x1="155.916" y1="16.0315" x2="187.832" y2="16.0315" gradientUnits="userSpaceOnUse">
<stop stop-opacity="0"/>
<stop offset="0.36142" stop-opacity="0.32528"/>
<stop offset="0.66685" stop-opacity="0.60017"/>
<stop offset="0.95116" stop-opacity="0.85604"/>
<stop offset="1" stop-opacity="0.9"/>
</linearGradient>
<linearGradient id="paint3_linear" x1="224.46" y1="32.9996" x2="240.477" y2="32.9996" gradientUnits="userSpaceOnUse">
<stop stop-opacity="0.9"/>
<stop offset="0.27762" stop-opacity="0.65014"/>
<stop offset="0.67475" stop-opacity="0.29272"/>
<stop offset="1" stop-opacity="0"/>
</linearGradient>
<linearGradient id="paint4_linear" x1="285.62" y1="16.0315" x2="317.535" y2="16.0315" gradientUnits="userSpaceOnUse">
<stop stop-opacity="0"/>
<stop offset="0.36142" stop-opacity="0.32528"/>
<stop offset="0.66685" stop-opacity="0.60017"/>
<stop offset="0.95116" stop-opacity="0.85604"/>
<stop offset="1" stop-opacity="0.9"/>
</linearGradient>
<linearGradient id="paint5_linear" x1="357.418" y1="20.1604" x2="370.397" y2="20.1604" gradientUnits="userSpaceOnUse">
<stop stop-opacity="0.9"/>
<stop offset="0.27762" stop-opacity="0.65014"/>
<stop offset="0.67475" stop-opacity="0.29272"/>
<stop offset="1" stop-opacity="0"/>
</linearGradient>
<linearGradient id="paint6_linear" x1="484.271" y1="41.7717" x2="490.802" y2="29.1346" gradientUnits="userSpaceOnUse">
<stop stop-opacity="0.9"/>
<stop offset="0.24971" stop-opacity="0.67526"/>
<stop offset="0.67392" stop-opacity="0.29347"/>
<stop offset="1" stop-opacity="0"/>
</linearGradient>
<linearGradient id="paint7_linear" x1="534.714" y1="15.6494" x2="548.084" y2="54.3191" gradientUnits="userSpaceOnUse">
<stop stop-opacity="0"/>
<stop offset="0.32525" stop-opacity="0.29272"/>
<stop offset="0.72238" stop-opacity="0.65014"/>
<stop offset="1" stop-opacity="0.9"/>
</linearGradient>
</defs>
</svg>
